# Blender v2.63 (sub 0) OBJ File: 'fern.blend'
# www.blender.org
mtllib fern.mtl
o Plane.001_Plane
v 8.499848 13.671523 12.543161
v -1.202460 10.104463 3.823496
v 13.946426 12.924340 6.788449
v 4.244118 9.357282 -1.931216
v -0.109051 8.270596 11.955377
v -9.750164 10.307889 4.697418
v 0.476439 1.090501 -0.726621
v 6.048921 13.896667 4.690897
v 0.939037 8.876801 0.571026
v 0.684911 11.319574 -0.051296
v 3.062910 -0.488713 -1.888560
v 14.462377 -1.774532 22.584755
v -2.908478 0.034064 3.379384
v 8.433535 -1.171181 26.214203
v 12.600821 1.401198 25.110476
v 7.876793 4.096094 12.272523
v 13.289435 0.101883 10.067943
v 1.660115 2.439847 16.599529
v 2.384017 -1.668145 -26.405102
v 3.900312 -1.022065 -1.911942
v -8.181532 -0.092048 -25.996521
v -6.653776 0.977174 -0.875730
v 5.526551 -1.383266 -13.881135
v -8.374352 0.816674 -13.391335
v -0.182109 4.106026 -12.764605
v -2.206317 1.541426 -27.355232
v -0.571825 2.342035 0.312039
v -27.361156 -1.146466 8.738607
v -1.936452 -1.078052 -2.174521
v -21.794519 1.567822 17.279200
v 4.193429 3.149387 7.134364
v -15.412523 -1.937706 2.038316
v -7.586925 3.922339 12.805017
v -14.499151 4.697288 6.293248
v -28.590460 2.629918 13.404688
v 0.729904 4.826205 0.543527
v -4.046379 6.029046 20.110003
v -3.687316 3.436158 0.787427
v 4.043763 6.340779 23.086786
v 5.117411 2.748585 3.291596
v -5.872141 5.846688 10.584787
v 5.587669 4.920256 13.350352
v -0.316952 8.413251 10.839238
v 0.022211 8.790329 21.961880
v 0.824298 4.454798 0.062199
v 21.273375 0.953353 -12.402725
v 4.016305 3.897129 3.160997
v 14.125087 1.345757 -21.424221
v -2.817102 5.791748 -4.743906
v 14.334387 3.708099 -3.043131
v 4.790882 5.650698 -14.088669
v 9.890740 8.481884 -8.645557
v 18.907625 4.470593 -17.726507
v -0.629708 7.412105 -0.356090
v -15.890092 5.536177 -18.739124
v 2.276165 3.707871 -4.424201
v -22.801800 6.852410 -9.537491
v -3.239801 4.493622 2.233158
v -5.466181 4.815354 -12.965595
v -13.773172 5.806437 -1.624182
v -9.210640 8.421974 -6.658490
v -19.542322 8.600003 -15.006666
v -0.136109 5.073314 0.985937
v -2.601662 12.749408 7.296080
v 4.193439 6.876558 3.891159
v -6.265639 10.669134 17.116207
v 2.926030 11.909459 8.978649
v 9.839401 10.961055 1.674162
v -3.875647 8.153647 -1.586833
v 11.569232 15.321202 9.730667
v -12.811583 11.895803 12.168941
v -23.690018 8.596022 -7.721251
v -25.219770 6.346795 2.568538
v -10.868909 9.546147 -7.554955
v -13.037114 6.370115 5.029445
v 0.095494 7.025817 1.187073
v -0.798952 6.874533 -4.178305
v -1.771872 4.486229 6.141592
v -12.469562 10.723847 -0.165287
v -26.399586 8.503306 -2.221752
v 18.354586 10.094448 5.534626
v 1.867077 5.929759 4.491930
v 18.246859 11.388613 -2.971896
v 2.124002 7.875522 -5.239353
v 9.062275 12.304231 0.892909
v 0.295111 8.789489 -0.041333
v 10.010157 8.081072 6.435736
v 10.211087 10.550840 -5.854556
v 18.865086 13.382585 1.515255
v -9.378656 13.556013 15.121614
v -1.827483 10.534619 -13.221247
v 2.395845 8.512560 -1.468498
v -8.364656 12.478296 -10.552247
v -4.130733 10.317369 1.493504
v -2.185457 13.671914 -4.995063
v -0.033293 10.822115 0.993096
v 1.447597 10.442135 -6.784247
v -7.115324 12.250728 -3.777531
v -6.171842 13.690042 -12.321311
v 16.569317 0.302909 9.188251
v 0.504044 -0.736952 4.554369
v 18.874241 1.094311 -1.721887
v 2.849582 -0.921672 -5.147021
v 9.454776 3.636712 1.685204
v 0.605816 1.493750 -0.599497
v 8.209653 0.272882 7.761028
v 11.052717 0.351988 -4.859399
v 18.820629 2.937598 3.898653
vt 0.510457 0.500000
vt 0.145914 0.500000
vt 0.145914 0.000000
vt 0.510457 0.000000
vt 1.000000 1.000000
vt 0.510457 1.000000
vt 1.000000 0.500000
vt 0.145914 1.000000
vt 1.000000 0.000000
vn -0.055526 0.890028 -0.452511
vn 0.691461 0.721762 -0.030689
vn 0.402928 0.821724 -0.403013
vn -0.313854 0.948025 -0.052390
vn -0.188149 0.916248 0.353679
vn 0.670822 0.735484 0.095189
vn 0.630482 0.750264 -0.198985
vn -0.331152 0.938520 -0.097563
vn -0.317795 0.945129 0.075744
vn -0.294742 0.527303 -0.796918
vn -0.401005 0.589011 -0.701613
vn -0.052750 0.969084 0.241025
vn 0.076308 0.989258 0.124683
vn -0.330556 0.885162 -0.327447
vn -0.488779 0.871970 0.027623
vn 0.524723 0.850188 -0.042962
vn 0.539074 0.812556 -0.221703
vn 0.290638 0.834251 0.468568
vn 0.587952 0.777409 0.223492
vn -0.056943 0.863518 -0.501092
vn -0.267611 0.936701 -0.225779
vn 0.402290 0.899529 -0.170324
vn 0.290923 0.881688 -0.371469
vn -0.166679 0.948373 0.269826
vn -0.032025 0.906111 0.421827
vn -0.213549 0.934838 -0.283680
vn 0.552098 0.749732 0.364814
vn 0.679091 0.727040 0.101234
vn -0.107116 0.987110 -0.118913
vn -0.165008 0.821535 0.545759
vn 0.128928 0.805682 0.578147
vn 0.286086 0.954549 -0.083617
vn 0.141644 0.798074 -0.585675
vn 0.235631 0.832628 -0.501208
vn -0.374130 0.916277 0.143049
vn -0.468116 0.881723 0.058582
vn -0.344473 0.725333 0.596012
vn -0.123022 0.777678 0.616508
vn -0.039306 0.947328 -0.317842
vn -0.325972 0.902123 -0.282695
vn -0.109232 0.895974 0.430464
vn -0.296764 0.946511 0.126681
vn 0.540979 0.793396 -0.279043
vn 0.708724 0.698242 0.100834
vn -0.101577 0.870090 -0.482312
vn 0.113737 0.920930 -0.372762
vn -0.059162 0.890231 0.451652
vn -0.297078 0.868409 0.397002
usemtl leaf.001_TT7020744_001.PNG
s off
f 64/1/1 9/2/1 69/3/1 6/4/1
f 12/5/2 17/6/2 16/1/2 15/7/2
f 17/6/3 11/8/3 7/2/3 16/1/3
f 16/1/4 7/2/4 13/3/4 18/4/4
f 15/7/5 16/1/5 18/4/5 14/9/5
f 25/1/6 27/2/6 20/3/6 23/4/6
f 26/7/7 25/1/7 23/4/7 19/9/7
f 21/5/8 24/6/8 25/1/8 26/7/8
f 24/6/9 22/8/9 27/2/9 25/1/9
f 34/1/10 36/2/10 29/3/10 32/4/10
f 35/7/11 34/1/11 32/4/11 28/9/11
f 30/5/12 33/6/12 34/1/12 35/7/12
f 33/6/13 31/8/13 36/2/13 34/1/13
f 43/1/14 45/2/14 38/3/14 41/4/14
f 44/7/15 43/1/15 41/4/15 37/9/15
f 39/5/16 42/6/16 43/1/16 44/7/16
f 42/6/17 40/8/17 45/2/17 43/1/17
f 52/1/18 54/2/18 47/3/18 50/4/18
f 53/7/19 52/1/19 50/4/19 46/9/19
f 48/5/20 51/6/20 52/1/20 53/7/20
f 51/6/21 49/8/21 54/2/21 52/1/21
f 61/1/22 63/2/22 56/3/22 59/4/22
f 62/7/23 61/1/23 59/4/23 55/9/23
f 57/5/24 60/6/24 61/1/24 62/7/24
f 60/6/25 58/8/25 63/2/25 61/1/25
f 90/7/26 64/1/26 6/4/26 71/9/26
f 66/5/27 5/6/27 64/1/27 90/7/27
f 5/6/28 65/8/28 9/2/28 64/1/28
f 80/7/29 79/1/29 74/4/29 72/9/29
f 73/5/30 75/6/30 79/1/30 80/7/30
f 75/6/31 78/8/31 76/2/31 79/1/31
f 79/1/32 76/2/32 77/3/32 74/4/32
f 68/6/33 4/8/33 10/2/33 8/1/33
f 3/5/34 68/6/34 8/1/34 70/7/34
f 67/4/35 1/9/35 70/7/35 8/1/35
f 8/1/36 10/2/36 2/3/36 67/4/36
f 85/1/37 86/2/37 82/3/37 87/4/37
f 89/7/38 85/1/38 87/4/38 81/9/38
f 83/5/39 88/6/39 85/1/39 89/7/39
f 88/6/40 84/8/40 86/2/40 85/1/40
f 98/6/41 94/8/41 96/2/41 95/1/41
f 93/5/42 98/6/42 95/1/42 99/7/42
f 99/7/43 95/1/43 97/4/43 91/9/43
f 95/1/44 96/2/44 92/3/44 97/4/44
f 107/6/45 103/8/45 105/2/45 104/1/45
f 102/5/46 107/6/46 104/1/46 108/7/46
f 108/7/47 104/1/47 106/4/47 100/9/47
f 104/1/48 105/2/48 101/3/48 106/4/48
o Plane
v 8.499848 13.671523 12.543161
v -1.202460 10.104463 3.823496
v 13.946426 12.924340 6.788449
v 4.244118 9.357282 -1.931216
v -0.109051 8.270596 11.955377
v -9.750164 10.307889 4.697418
v 0.476439 1.090501 -0.726621
v 6.048921 13.896667 4.690897
v 0.939037 8.876801 0.571026
v 0.684911 11.319574 -0.051296
v 3.062910 -0.488713 -1.888560
v 14.462377 -1.774532 22.584755
v -2.908478 0.034064 3.379384
v 8.433535 -1.171181 26.214203
v 12.600821 1.401198 25.110476
v 7.876793 4.096094 12.272523
v 13.289435 0.101883 10.067943
v 1.660115 2.439847 16.599529
v 2.384017 -1.668145 -26.405102
v 3.900312 -1.022065 -1.911942
v -8.181532 -0.092048 -25.996521
v -6.653776 0.977174 -0.875730
v 5.526551 -1.383266 -13.881135
v -8.374352 0.816674 -13.391335
v -0.182109 4.106026 -12.764605
v -2.206317 1.541426 -27.355232
v -0.571825 2.342035 0.312039
v -27.361156 -1.146466 8.738607
v -1.936452 -1.078052 -2.174521
v -21.794519 1.567822 17.279200
v 4.193429 3.149387 7.134364
v -15.412523 -1.937706 2.038316
v -7.586925 3.922339 12.805017
v -14.499151 4.697288 6.293248
v -28.590460 2.629918 13.404688
v 0.729904 4.826205 0.543527
v -4.046379 6.029046 20.110003
v -3.687316 3.436158 0.787427
v 4.043763 6.340779 23.086786
v 5.117411 2.748585 3.291596
v -5.872141 5.846688 10.584787
v 5.587669 4.920256 13.350352
v -0.316952 8.413251 10.839238
v 0.022211 8.790329 21.961880
v 0.824298 4.454798 0.062199
v 21.273375 0.953353 -12.402725
v 4.016305 3.897129 3.160997
v 14.125087 1.345757 -21.424221
v -2.817102 5.791748 -4.743906
v 14.334387 3.708099 -3.043131
v 4.790882 5.650698 -14.088669
v 9.890740 8.481884 -8.645557
v 18.907625 4.470593 -17.726507
v -0.629708 7.412105 -0.356090
v -15.890092 5.536177 -18.739124
v 2.276165 3.707871 -4.424201
v -22.801800 6.852410 -9.537491
v -3.239801 4.493622 2.233158
v -5.466181 4.815354 -12.965595
v -13.773172 5.806437 -1.624182
v -9.210640 8.421974 -6.658490
v -19.542322 8.600003 -15.006666
v -0.136109 5.073314 0.985937
v -2.601662 12.749408 7.296080
v 4.193439 6.876558 3.891159
v -6.265639 10.669134 17.116207
v 2.926030 11.909459 8.978649
v 9.839401 10.961055 1.674162
v -3.875647 8.153647 -1.586833
v 11.569232 15.321202 9.730667
v -12.811583 11.895803 12.168941
v -23.690018 8.596022 -7.721251
v -25.219770 6.346795 2.568538
v -10.868909 9.546147 -7.554955
v -13.037114 6.370115 5.029445
v 0.095494 7.025817 1.187073
v -0.798952 6.874533 -4.178305
v -1.771872 4.486229 6.141592
v -12.469562 10.723847 -0.165287
v -26.399586 8.503306 -2.221752
v 18.354586 10.094448 5.534626
v 1.867077 5.929759 4.491930
v 18.246859 11.388613 -2.971896
v 2.124002 7.875522 -5.239353
v 9.062275 12.304231 0.892909
v 0.295111 8.789489 -0.041333
v 10.010157 8.081072 6.435736
v 10.211087 10.550840 -5.854556
v 18.865086 13.382585 1.515255
v -9.378656 13.556013 15.121614
v -1.827483 10.534619 -13.221247
v 2.395845 8.512560 -1.468498
v -8.364656 12.478296 -10.552247
v -4.130733 10.317369 1.493504
v -2.185457 13.671914 -4.995063
v -0.033293 10.822115 0.993096
v 1.447597 10.442135 -6.784247
v -7.115324 12.250728 -3.777531
v -6.171842 13.690042 -12.321311
v 16.569317 0.302909 9.188251
v 0.504044 -0.736952 4.554369
v 18.874241 1.094311 -1.721887
v 2.849582 -0.921672 -5.147021
v 9.454776 3.636712 1.685204
v 0.605816 1.493750 -0.599497
v 8.209653 0.272882 7.761028
v 11.052717 0.351988 -4.859399
v 18.820629 2.937598 3.898653
vt 0.510457 0.500000
vt 0.145914 0.500000
vt 0.145914 0.000000
vt 0.510457 0.000000
vt 1.000000 1.000000
vt 0.510457 1.000000
vt 1.000000 0.500000
vt 0.145914 1.000000
vt 1.000000 0.000000
usemtl leaf.001_TT7020744_001.PNG
s off
f 172/10/1 117/11/1 177/12/1 114/13/1
f 120/14/2 125/15/2 124/10/2 123/16/2
f 125/15/3 119/17/3 115/11/3 124/10/3
f 124/10/4 115/11/4 121/12/4 126/13/4
f 123/16/5 124/10/5 126/13/5 122/18/5
f 133/10/6 135/11/6 128/12/6 131/13/6
f 134/16/7 133/10/7 131/13/7 127/18/7
f 129/14/8 132/15/8 133/10/8 134/16/8
f 132/15/9 130/17/9 135/11/9 133/10/9
f 142/10/10 144/11/10 137/12/10 140/13/10
f 143/16/11 142/10/11 140/13/11 136/18/11
f 138/14/12 141/15/12 142/10/12 143/16/12
f 141/15/13 139/17/13 144/11/13 142/10/13
f 151/10/14 153/11/14 146/12/14 149/13/14
f 152/16/15 151/10/15 149/13/15 145/18/15
f 147/14/16 150/15/16 151/10/16 152/16/16
f 150/15/17 148/17/17 153/11/17 151/10/17
f 160/10/18 162/11/18 155/12/18 158/13/18
f 161/16/19 160/10/19 158/13/19 154/18/19
f 156/14/20 159/15/20 160/10/20 161/16/20
f 159/15/21 157/17/21 162/11/21 160/10/21
f 169/10/22 171/11/22 164/12/22 167/13/22
f 170/16/23 169/10/23 167/13/23 163/18/23
f 165/14/24 168/15/24 169/10/24 170/16/24
f 168/15/25 166/17/25 171/11/25 169/10/25
f 198/16/26 172/10/26 114/13/26 179/18/26
f 174/14/27 113/15/27 172/10/27 198/16/27
f 113/15/28 173/17/28 117/11/28 172/10/28
f 188/16/29 187/10/29 182/13/29 180/18/29
f 181/14/30 183/15/30 187/10/30 188/16/30
f 183/15/31 186/17/31 184/11/31 187/10/31
f 187/10/32 184/11/32 185/12/32 182/13/32
f 176/15/33 112/17/33 118/11/33 116/10/33
f 111/14/34 176/15/34 116/10/34 178/16/34
f 175/13/35 109/18/35 178/16/35 116/10/35
f 116/10/36 118/11/36 110/12/36 175/13/36
f 193/10/37 194/11/37 190/12/37 195/13/37
f 197/16/38 193/10/38 195/13/38 189/18/38
f 191/14/39 196/15/39 193/10/39 197/16/39
f 196/15/40 192/17/40 194/11/40 193/10/40
f 206/15/41 202/17/41 204/11/41 203/10/41
f 201/14/42 206/15/42 203/10/42 207/16/42
f 207/16/43 203/10/43 205/13/43 199/18/43
f 203/10/44 204/11/44 200/12/44 205/13/44
f 215/15/45 211/17/45 213/11/45 212/10/45
f 210/14/46 215/15/46 212/10/46 216/16/46
f 216/16/47 212/10/47 214/13/47 208/18/47
f 212/10/48 213/11/48 209/12/48 214/13/48
o Circle
v 0.075010 0.000206 -0.194148
v -0.197743 -0.000456 -0.037270
v -0.198260 -0.000507 0.277381
v 0.073977 0.000104 0.435153
v 0.346730 0.000765 0.278275
v 0.347246 0.000816 -0.036376
v 0.214820 4.918389 -0.098325
v 0.074234 4.963669 0.008612
v 0.086825 5.080389 0.175599
v 0.319891 5.073812 0.338049
v 0.397968 4.812847 0.234031
v 0.400965 4.843542 0.025318
v 0.131899 9.518363 0.240382
v 0.005759 9.654251 0.282510
v -0.043001 9.643876 0.428192
v 0.034379 9.497612 0.531746
v 0.160519 9.361725 0.489618
v 0.209280 9.372100 0.343936
v 0.427381 11.171598 0.522261
vt 0.269374 0.539333
vt 0.226051 0.536766
vt 0.179339 0.086885
vt 0.228145 0.085279
vt 0.327953 0.518700
vt 0.293044 0.517578
vt 0.277026 0.084818
vt 0.325924 0.083620
vt 0.413809 0.533135
vt 0.389085 0.520323
vt 0.423401 0.081985
vt 0.471808 0.086539
vt 0.374780 0.081985
vt 0.361837 0.516085
vt 0.443918 1.390205
vt 0.427217 0.951891
vt 0.449187 0.944881
vt 0.335279 0.958665
vt 0.358473 0.959191
vt 0.382066 0.961156
vt 0.405334 0.958909
vt 0.313043 0.964646
vt 0.363295 0.565016
vt 0.380688 0.571491
vt 0.303532 0.596764
vt 0.329356 0.581746
vt 0.241843 0.585981
vt 0.280649 0.589442
vt 0.405116 0.560760
vn -0.534384 0.044476 0.844071
vn 0.999922 -0.010881 0.006075
vn -0.998395 0.055432 0.011603
vn 0.593692 -0.006340 0.804667
vn 0.523592 0.003367 -0.851963
vn -0.535049 0.034399 -0.844121
vn -0.911371 0.298085 -0.283811
vn 0.261543 -0.055943 0.963569
vn 0.778307 -0.032192 -0.627058
vn -0.122812 0.188094 -0.974442
vn -0.668031 0.160950 0.726519
vn 0.941415 -0.144307 0.304818
vn -0.460638 0.050923 -0.886126
vn 0.988186 0.037314 0.148645
vn -0.668172 -0.067672 0.740923
vn 0.685569 0.072783 -0.724360
vn 0.571968 -0.007735 0.820240
vn -0.993835 -0.015047 -0.109846
usemtl bark_3597199001_41f8c9a000-less-sat.jpg
s off
f 226/19/49 225/20/49 219/21/49 220/22/49
f 228/23/50 227/24/50 221/25/50 222/26/50
f 225/27/51 224/28/51 218/29/51 219/30/51
f 227/24/52 226/19/52 220/22/52 221/25/52
f 217/31/53 223/32/53 228/23/53 222/26/53
f 217/31/54 218/29/54 224/28/54 223/32/54
f 235/33/55 230/34/55 231/35/55
f 235/33/56 232/36/56 233/37/56
f 235/33/57 234/38/57 229/39/57
f 235/33/58 229/39/58 230/34/58
f 235/33/59 231/40/59 232/36/59
f 235/33/60 233/37/60 234/38/60
f 230/34/61 229/39/61 223/41/61 224/42/61
f 234/38/62 233/37/62 227/43/62 228/44/62
f 232/36/63 231/40/63 225/45/63 226/46/63
f 234/38/64 228/44/64 223/41/64 229/39/64
f 233/37/65 232/36/65 226/46/65 227/43/65
f 231/35/66 230/34/66 224/42/66 225/47/66
