# Blender v2.63 (sub 0) OBJ File: 'flower3.blend'
# www.blender.org
mtllib flower3.mtl
o Circle.001
v 2.356925 6.855525 1.175266
v -1.064666 8.001108 0.906939
v 2.150721 5.459286 -2.156348
v -1.270870 6.604869 -2.424675
v -1.206355 7.198550 -0.712710
v 2.215236 6.052966 -0.444383
v 0.331386 6.071251 -0.385524
v 0.401339 5.927639 -2.244354
v 0.607542 7.323877 1.087260
vt 0.501664 0.512989
vt 0.944078 0.502125
vt 0.930880 0.961533
vt 0.944097 0.038600
vt 0.490561 0.967213
vt 0.021246 0.955902
vt 0.033133 0.054280
vt 0.501894 0.041228
vt 0.020000 0.494730
vn 0.595994 0.697540 -0.397779
vn 0.605585 0.744515 -0.281007
vn 0.225928 0.720736 -0.655360
vn 0.261107 0.963147 -0.064586
vn 0.380041 0.923210 -0.057025
vn -0.005162 0.896197 -0.443626
vn 0.345652 0.681818 -0.644709
vn -0.001065 0.944814 -0.327605
usemtl flower_4112257083_c16cda65583_Kopie.png
s off
f 7/1/1 5/2/1 2/3/1
f 4/4/2 5/2/2 7/1/2
f 9/5/3 1/6/3 7/1/3
f 3/7/4 8/8/4 7/1/4
f 8/8/5 4/4/5 7/1/5
f 7/1/6 1/6/6 6/9/6
f 9/5/7 7/1/7 2/3/7
f 6/9/8 3/7/8 7/1/8
o Circle
v -0.579312 2.997891 3.615977
v 0.430208 2.677138 0.827913
v -1.827399 3.647327 3.104365
v -0.817880 3.326574 0.316302
v -0.323540 2.906703 0.630783
v -1.333060 3.227456 3.418847
v -0.000514 0.000000 -0.215249
v -0.187549 0.000000 0.108706
v 0.186521 0.000000 0.108706
v -0.000514 4.121147 -0.120373
v -0.105384 4.121147 0.061268
v 0.104356 4.121147 0.061268
v 0.229260 5.674363 -0.379461
v 0.135838 5.776573 -0.210344
v 0.346839 5.720301 -0.201024
v 0.281858 5.842518 -0.554970
v 0.120353 6.019214 -0.262608
v 0.485124 5.921933 -0.246495
v 0.328272 6.020429 -0.531611
v 0.236376 6.120968 -0.365256
v 0.443931 6.065616 -0.356088
v -0.016772 2.488135 0.010795
v -0.091943 2.357349 0.008118
v 0.058138 2.357795 0.023552
v -0.232912 2.859330 0.435553
v -0.292828 2.750027 0.420233
v -0.168694 2.751467 0.439220
v -0.313188 2.917243 0.652186
v -0.324038 2.897448 0.649411
v -0.301558 2.897709 0.652850
v 0.623102 6.025111 -0.234995
v 0.067782 6.181842 -0.263919
v 0.315578 5.912499 -0.710946
v 0.028528 0.170907 -0.164547
v -0.105814 0.170907 0.068140
v 0.162870 0.170907 0.068140
v 2.256625 4.537641 -1.379758
v 0.256020 4.609370 -0.631424
v 2.700474 4.365792 -0.434170
v 0.699868 4.437522 0.314165
v 0.524481 4.399720 -0.185762
v 2.525087 4.327989 -0.934098
v 0.030718 4.347226 0.010912
v 0.038678 4.239439 0.013557
v -0.031155 4.286844 -0.054003
v 0.396263 4.384190 -0.109087
v 0.395561 4.294590 -0.100719
v 0.340831 4.334690 -0.159839
v 0.547473 4.403572 -0.185824
v 0.547346 4.387345 -0.184308
v 0.537434 4.394608 -0.195015
vt 0.707012 0.132492
vt 0.717294 0.300125
vt 1.059492 0.258168
vt 1.047856 0.067090
vt 0.694802 -0.034828
vt 1.034214 -0.123780
vt 0.725623 0.467956
vt 1.069084 0.449428
vt 0.003073 0.157772
vt 0.008694 0.268242
vt 0.366168 0.197895
vt 0.355391 0.054125
vt 0.023195 0.494213
vt 0.015016 0.383142
vt 0.375097 0.342082
vt 0.382163 0.486484
vt -0.003046 0.525552
vt -0.014697 0.390318
vt -0.020669 0.272241
vt -0.026062 0.136692
vt -0.045608 0.150280
vt -0.038877 0.274216
vt -0.024448 0.518538
vt -0.032787 0.393563
vt 0.933946 0.539640
vt 0.934313 0.584387
vt 1.050110 0.535279
vt 1.071120 0.449121
vt 0.940248 0.628115
vt 1.073087 0.626316
vt 0.943041 0.675990
vt 1.088026 0.726736
vt 0.876894 0.631361
vt 0.874578 0.604424
vt 0.876453 0.655661
vt 0.870685 0.580516
vt 0.203705 0.257155
vt 0.891487 0.239558
vt 0.934937 0.520166
vt 0.165094 0.525602
vt 0.878160 0.779986
vt 0.279404 0.779279
vn -0.830525 0.283382 -0.479503
vn 0.000000 0.230940 0.972968
vn -0.866025 -0.001166 0.500000
vn -0.000205 0.161913 0.986805
vn -0.843755 0.208222 0.494693
vn -0.864144 0.043930 -0.501324
vn -0.739260 0.583010 0.337036
vn -0.900618 -0.145672 -0.409471
vn 0.013195 0.211351 0.977321
vn 0.132662 0.624871 0.769375
vn -0.842840 0.152108 0.516221
vn -0.761156 0.275660 -0.587072
vn -0.863603 -0.504158 0.003644
vn -0.620811 0.399847 -0.674327
vn -0.078369 -0.742695 0.665028
vn -0.772135 0.481391 -0.414813
vn -0.071689 -0.843274 0.532682
vn -0.843084 -0.507951 -0.176623
vn 0.479480 0.729282 -0.488105
vn -0.271147 -0.957271 0.100556
vn 0.000079 -0.856330 0.516429
vn -0.866025 -0.000776 -0.500000
vn 0.000000 0.001740 0.999999
vn -0.865963 -0.011958 0.499964
vn 0.252849 -0.816423 0.519155
vn 0.300429 0.064145 0.951645
vn -0.043664 -0.841569 -0.538381
vn 0.442931 0.079933 0.892986
vn 0.120547 -0.766145 -0.631261
vn 0.332995 -0.830577 0.446381
vn -0.292345 -0.956304 0.004164
vn -0.595265 -0.793872 -0.124206
vn -0.160224 -0.926858 -0.339502
vn -0.006671 -0.996952 0.077726
usemtl stem_3597199001_41f8c9a000-less-sat.jpg
s off
f 44/10/9 43/11/9 16/12/9 17/13/9
f 45/14/10 44/10/10 17/13/10 18/15/10
f 45/16/11 43/11/11 16/12/11 18/17/11
f 24/18/12 23/19/12 20/20/12 21/21/12
f 24/22/13 22/23/13 19/24/13 21/25/13
f 23/19/14 22/23/14 19/24/14 20/20/14
f 27/26/15 25/27/15 22/23/15 24/22/15
f 26/28/16 25/27/16 22/23/16 23/19/16
f 27/29/17 26/28/17 23/19/17 24/18/17
f 30/30/18 29/31/18 26/28/18 27/29/18
f 30/32/19 28/33/19 25/27/19 27/26/19
f 29/31/20 28/33/20 25/27/20 26/28/20
f 36/34/21 34/35/21 31/36/21 33/37/21
f 35/38/22 34/35/22 31/36/22 32/39/22
f 36/40/23 35/38/23 32/39/23 33/41/23
f 38/42/24 37/43/24 34/35/24 35/38/24
f 39/44/25 38/42/25 35/38/25 36/40/25
f 39/45/26 37/43/26 34/35/26 36/34/26
f 40/32/27 42/33/27 28/33/27 30/32/27
f 40/30/28 41/31/28 29/31/28 30/30/28
f 41/31/29 42/33/29 28/33/29 29/31/29
f 20/20/30 19/24/30 43/11/30 44/10/30
f 21/21/31 20/20/31 44/10/31 45/14/31
f 21/25/32 19/24/32 43/11/32 45/16/32
f 57/34/33 55/35/33 52/36/33 54/37/33
f 56/38/34 55/35/34 52/36/34 53/39/34
f 57/40/35 56/38/35 53/39/35 54/41/35
f 59/42/36 58/43/36 55/35/36 56/38/36
f 60/44/37 59/42/37 56/38/37 57/40/37
f 60/45/38 58/43/38 55/35/38 57/34/38
usemtl Material_leaf_texture_00002_Kopie.png
f 11/46/39 10/47/39 15/48/39 14/49/39
f 12/50/40 13/51/40 14/49/40 15/48/40
f 51/48/41 50/49/41 47/46/41 46/47/41
f 48/50/42 49/51/42 50/49/42 51/48/42
