# Blender v2.63 (sub 0) OBJ File: 'flower1.blend'
# www.blender.org
mtllib flower1.mtl
o Circle
v -0.561113 4.066664 3.624132
v 0.448407 3.745911 0.836069
v -1.809201 4.716100 3.112521
v -0.799681 4.395347 0.324457
v -0.305341 3.975476 0.638939
v -1.314861 4.296229 3.427003
v 1.917566 7.275604 1.609473
v -1.497981 7.652187 1.437229
v 2.025803 6.706133 -1.781903
v -1.389743 7.082716 -1.954147
v -1.457177 7.255122 -0.240022
v 1.958370 6.878538 -0.067778
v 0.209370 6.488509 -0.102585
v 0.304715 6.782095 -1.849588
v 0.196478 7.351565 1.541789
v -0.000514 0.000000 -0.215249
v -0.187549 0.000000 0.108706
v 0.186521 0.000000 0.108706
v -0.000514 4.121147 -0.120373
v -0.105384 4.121147 0.061268
v 0.104356 4.121147 0.061268
v 0.167203 6.100825 -0.195099
v 0.055014 6.133543 -0.010388
v 0.272619 6.113974 -0.004076
v 0.190187 6.318106 -0.313871
v -0.003761 6.374667 0.005450
v 0.372427 6.340837 0.016361
v 0.203256 6.487397 -0.239561
v 0.092899 6.519579 -0.057868
v 0.306950 6.500330 -0.051659
v 0.001427 3.556908 0.018950
v -0.073744 3.426122 0.016273
v 0.076337 3.426568 0.031707
v -0.214713 3.928103 0.443708
v -0.274628 3.818800 0.428388
v -0.150495 3.820240 0.447375
v -0.294988 3.986016 0.660341
v -0.305839 3.966221 0.657567
v -0.283359 3.966482 0.661005
v 0.489232 6.458635 0.064277
v -0.084993 6.519526 0.045832
v 0.212247 6.433971 -0.442134
v 0.028528 0.170907 -0.164547
v -0.105814 0.170907 0.068140
v 0.162870 0.170907 0.068140
vt 0.707012 0.132492
vt 0.717294 0.300125
vt 1.059492 0.258168
vt 1.047856 0.067090
vt 0.694802 -0.034828
vt 1.034214 -0.123780
vt 0.725623 0.467956
vt 1.069084 0.449428
vt 0.003073 0.157772
vt 0.008694 0.268242
vt 0.366168 0.197895
vt 0.355391 0.054125
vt 0.023195 0.494213
vt 0.015016 0.383142
vt 0.375097 0.342082
vt 0.382163 0.486484
vt -0.003046 0.525552
vt -0.014697 0.390318
vt -0.020669 0.272241
vt -0.026062 0.136692
vt -0.045608 0.150280
vt -0.038877 0.274216
vt -0.024448 0.518538
vt -0.032787 0.393563
vt 0.933946 0.539640
vt 0.934313 0.584387
vt 1.050110 0.535279
vt 1.071120 0.449121
vt 0.940248 0.628115
vt 1.073087 0.626316
vt 0.943041 0.675990
vt 1.088026 0.726736
vt 0.876894 0.631361
vt 0.874578 0.604424
vt 0.876453 0.655661
vt 0.870685 0.580516
vt 0.482787 0.502400
vt 0.016747 0.504800
vt 0.018386 0.028379
vt 0.018386 0.958820
vt 0.483607 0.028379
vt 0.965220 0.028379
vt 0.968499 0.949220
vt 0.485246 0.954020
vt 0.965220 0.500000
vt 0.203705 0.257155
vt 0.891487 0.239558
vt 0.934937 0.520166
vt 0.165094 0.525602
vt 0.878160 0.779986
vt 0.279404 0.779279
vn -0.830525 0.283382 -0.479503
vn 0.000000 0.230940 0.972968
vn -0.866025 -0.001166 0.500000
vn -0.013144 0.035260 0.999292
vn -0.868692 0.090642 0.486989
vn -0.857152 0.051660 -0.512467
vn -0.836351 0.328408 0.438938
vn -0.854855 -0.176322 -0.487989
vn -0.035572 -0.074131 0.996614
vn 0.008915 0.395368 0.918479
vn -0.861758 -0.146655 0.485659
vn -0.792441 0.295413 -0.533637
vn -0.863603 -0.504159 0.003644
vn -0.620811 0.399847 -0.674327
vn -0.078369 -0.742695 0.665028
vn -0.772135 0.481391 -0.414813
vn -0.071689 -0.843274 0.532682
vn -0.843084 -0.507951 -0.176623
vn 0.344017 0.908351 -0.237806
vn -0.093713 -0.978428 -0.184112
vn 0.150327 -0.954044 0.259235
vn -0.866025 -0.000776 -0.500000
vn 0.000000 0.001740 0.999999
vn -0.865963 -0.011958 0.499964
vn 0.423046 0.883990 -0.198981
vn 0.421802 0.903639 -0.074294
vn 0.057256 0.884183 -0.463618
vn 0.036891 0.985169 0.167572
vn 0.161773 0.971701 0.172125
vn -0.207448 0.950791 -0.230133
vn 0.182678 0.871140 -0.455789
vn -0.214415 0.970964 -0.106094
vn -0.292345 -0.956304 0.004164
vn -0.595265 -0.793872 -0.124206
usemtl stem_3597199001_41f8c9a000-less-sat.jpg
s off
f 44/1/1 43/2/1 16/3/1 17/4/1
f 45/5/2 44/1/2 17/4/2 18/6/2
f 45/7/3 43/2/3 16/3/3 18/8/3
f 24/9/4 23/10/4 20/11/4 21/12/4
f 24/13/5 22/14/5 19/15/5 21/16/5
f 23/10/6 22/14/6 19/15/6 20/11/6
f 27/17/7 25/18/7 22/14/7 24/13/7
f 26/19/8 25/18/8 22/14/8 23/10/8
f 27/20/9 26/19/9 23/10/9 24/9/9
f 30/21/10 29/22/10 26/19/10 27/20/10
f 30/23/11 28/24/11 25/18/11 27/17/11
f 29/22/12 28/24/12 25/18/12 26/19/12
f 36/25/13 34/26/13 31/27/13 33/28/13
f 35/29/14 34/26/14 31/27/14 32/30/14
f 36/31/15 35/29/15 32/30/15 33/32/15
f 38/33/16 37/34/16 34/26/16 35/29/16
f 39/35/17 38/33/17 35/29/17 36/31/17
f 39/36/18 37/34/18 34/26/18 36/25/18
f 40/23/19 42/24/19 28/24/19 30/23/19
f 40/21/20 41/22/20 29/22/20 30/21/20
f 41/22/21 42/24/21 28/24/21 29/22/21
f 20/11/22 19/15/22 43/2/22 44/1/22
f 21/12/23 20/11/23 44/1/23 45/5/23
f 21/16/24 19/15/24 43/2/24 45/7/24
usemtl flower_4112257083_c16cda65581_Kopie.png
f 13/37/25 11/38/25 8/39/25
f 10/40/26 11/38/26 13/37/26
f 13/37/27 15/41/27 7/42/27
f 9/43/28 14/44/28 13/37/28
f 14/44/29 10/40/29 13/37/29
f 12/45/30 13/37/30 7/42/30
f 15/41/31 13/37/31 8/39/31
f 12/45/32 9/43/32 13/37/32
usemtl Material_leaf_texture_00002_Kopie.png
f 2/46/33 1/47/33 6/48/33 5/49/33
f 3/50/34 4/51/34 5/49/34 6/48/34
