# Blender v2.63 (sub 0) OBJ File: 'rock3.blend'
# www.blender.org
mtllib rock3.mtl
o Icosphere
v 0.031863 -0.004352 0.009232
v 0.862017 0.310693 0.634297
v -0.255846 0.499760 0.624044
v -1.091220 0.366868 0.083736
v -0.500670 0.280936 -1.128389
v 0.779278 0.255031 -0.545561
v 0.296540 1.328307 1.126820
v -0.518646 1.254121 0.549974
v -0.484683 1.196668 -0.446468
v 0.175682 1.327326 -1.093836
v 0.650077 1.238698 0.008413
v 0.098277 2.092978 0.048588
v 0.379366 -0.014168 0.296695
v 0.208204 0.452717 0.611868
v -0.162513 -0.013625 0.499926
v 0.537660 -0.003503 -0.241297
v 1.091480 0.252390 0.177629
v -0.659937 0.463332 0.347920
v -0.555448 0.018580 0.007903
v -0.892115 0.329591 -0.663188
v -0.358934 -0.011375 -1.000668
v 0.394576 0.150725 -0.869546
v 1.106172 0.877165 -0.324431
v 1.108854 0.735003 0.424739
v 0.770198 0.854972 0.714211
v -0.026208 0.708688 1.158208
v -0.590986 0.897409 0.874116
v -0.940583 0.899475 0.324029
v -0.915568 0.980740 -0.449459
v -0.641682 0.935292 -1.083245
v -0.078206 0.653188 -1.356734
v 0.668040 0.781611 -1.036043
v 0.579826 1.279487 0.411706
v -0.176168 1.264440 1.164091
v -0.424554 1.050494 0.291986
v -0.187490 1.300534 -0.669619
v 0.478405 1.300535 -0.651574
v 0.505641 1.906324 -0.028595
v 0.214551 1.982980 0.464829
v -0.303046 1.703233 0.178557
v -0.337630 1.619955 -0.211016
v 0.127061 1.790576 -0.429638
vt 0.996858 0.142834
vt 0.941675 0.271479
vt 0.820160 0.178460
vt 0.918219 0.452302
vt 0.984086 0.462091
vt 0.534120 0.048371
vt 1.250802 0.247721
vt 1.048552 0.306374
vt 0.947904 0.580874
vt 0.738234 0.301697
vt 0.842634 0.368808
vt 0.763955 0.455325
vt 0.527058 0.225581
vt 0.617811 0.224563
vt 0.565119 0.378154
vt 0.286449 0.306523
vt 0.374239 0.246760
vt 0.337737 0.437679
vt 0.087447 0.419256
vt 0.152300 0.352008
vt 0.166716 0.536111
vt 0.883347 0.586059
vt 0.668965 0.432182
vt 0.431723 0.404799
vt 0.253520 0.434417
vt 0.056734 0.617664
vt 0.770932 0.640996
vt 0.877272 0.760058
vt 0.678613 0.861681
vt 0.622266 0.548462
vt 0.715459 0.574214
vt 0.549995 0.748703
vt 0.399789 0.530493
vt 0.598597 0.484006
vt 0.450467 0.717860
vt 0.258241 0.621280
vt 0.329566 0.613144
vt 0.335562 0.830364
vt 0.007490 0.784240
vt 0.193518 0.707178
vt 0.116855 0.978087
vt 1.087447 0.419256
vt 0.250802 0.247721
vt 0.048552 0.306374
vt 1.056734 0.617664
vt 1.007490 0.784240
vt 1.116855 0.978087
vt 0.518023 0.894642
vn -0.017487 -0.999786 -0.009735
vn 0.150884 -0.915342 0.373302
vn -0.166723 -0.760186 0.627918
vn 0.397229 -0.495071 0.772698
vn 0.816126 -0.573351 0.071963
vn -0.400372 -0.896146 0.191290
vn -0.155156 -0.802210 -0.576495
vn 0.303720 -0.945341 -0.118442
vn 0.890774 0.245949 0.382031
vn -0.323435 -0.608509 0.724631
vn 0.106021 -0.600879 0.792230
vn -0.024720 -0.537828 0.842677
vn -0.865871 -0.395581 0.306192
vn -0.526536 -0.495346 0.690909
vn -0.845454 0.413068 0.338450
vn -0.423658 -0.383312 -0.820704
vn -0.847957 -0.404309 -0.342692
vn -0.550615 0.474349 -0.686850
vn 0.701529 -0.573382 -0.423139
vn 0.406354 -0.696799 -0.591021
vn 0.677358 0.059420 -0.733238
vn 0.624531 0.141545 0.768029
vn -0.742241 -0.101596 0.662343
vn -0.794305 0.586535 -0.158116
vn -0.000031 -0.025178 -0.999664
vn 0.916166 0.313303 -0.249855
vn 0.453322 0.365612 0.812891
vn 0.825983 0.501846 0.256630
vn 0.169012 0.855464 0.489425
vn -0.801508 0.593982 0.068514
vn -0.384594 0.379711 0.841334
vn -0.815485 0.565477 0.123234
vn -0.638356 0.754814 -0.150639
vn -0.709922 0.660451 -0.244514
vn -0.798547 0.541551 -0.262703
vn 0.028718 0.654897 -0.755150
vn -0.522355 0.674276 -0.521989
vn -0.035920 0.783776 -0.619983
vn 0.842006 0.539415 0.002167
vn 0.694906 0.602191 -0.392956
vn 0.749443 0.649159 -0.129887
vn -0.172765 0.980590 -0.092502
usemtl Material
s 1
f 1/1/1 13/2/2 15/3/3
f 2/4/4 13/2/2 17/5/5
f 1/1/1 15/3/3 19/6/6
f 1/1/1 19/6/6 21/7/7
f 1/1/1 21/7/7 16/8/8
f 2/4/4 17/5/5 24/9/9
f 3/10/10 14/11/11 26/12/12
f 4/13/13 18/14/14 28/15/15
f 5/16/16 20/17/17 30/18/18
f 6/19/19 22/20/20 32/21/21
f 2/4/4 24/9/9 25/22/22
f 3/10/10 26/12/12 27/23/23
f 4/13/13 28/15/15 29/24/24
f 5/16/16 30/18/18 31/25/25
f 6/19/19 32/21/21 23/26/26
f 7/27/27 33/28/28 39/29/29
f 8/30/30 34/31/31 40/32/32
f 9/33/33 35/34/34 41/35/35
f 10/36/36 36/37/37 42/38/38
f 11/39/39 37/40/40 38/41/41
f 15/3/3 14/11/11 3/10/10
f 15/3/3 13/2/2 14/11/11
f 13/2/2 2/4/4 14/11/11
f 17/5/5 16/8/8 6/42/19
f 17/5/5 13/2/2 16/8/8
f 13/2/2 1/1/1 16/8/8
f 19/6/6 18/14/14 4/13/13
f 19/6/6 15/3/3 18/14/14
f 15/3/3 3/10/10 18/14/14
f 21/43/7 20/17/17 5/16/16
f 21/43/7 19/6/6 20/17/17
f 19/6/6 4/13/13 20/17/17
f 16/44/8 22/20/20 6/19/19
f 16/44/8 21/43/7 22/20/20
f 21/43/7 5/16/16 22/20/20
f 24/9/9 23/45/26 11/46/39
f 24/9/9 17/5/5 23/45/26
f 17/5/5 6/42/19 23/45/26
f 26/12/12 25/22/22 7/27/27
f 26/12/12 14/11/11 25/22/22
f 14/11/11 2/4/4 25/22/22
f 28/15/15 27/23/23 8/30/30
f 28/15/15 18/14/14 27/23/23
f 18/14/14 3/10/10 27/23/23
f 30/18/18 29/24/24 9/33/33
f 30/18/18 20/17/17 29/24/24
f 20/17/17 4/13/13 29/24/24
f 32/21/21 31/25/25 10/36/36
f 32/21/21 22/20/20 31/25/25
f 22/20/20 5/16/16 31/25/25
f 25/22/22 33/28/28 7/27/27
f 25/22/22 24/9/9 33/28/28
f 24/9/9 11/46/39 33/28/28
f 27/23/23 34/31/31 8/30/30
f 27/23/23 26/12/12 34/31/31
f 26/12/12 7/27/27 34/31/31
f 29/24/24 35/34/34 9/33/33
f 29/24/24 28/15/15 35/34/34
f 28/15/15 8/30/30 35/34/34
f 31/25/25 36/37/37 10/36/36
f 31/25/25 30/18/18 36/37/37
f 30/18/18 9/33/33 36/37/37
f 23/26/26 37/40/40 11/39/39
f 23/26/26 32/21/21 37/40/40
f 32/21/21 10/36/36 37/40/40
f 39/29/29 38/47/41 12/48/42
f 39/29/29 33/28/28 38/47/41
f 33/28/28 11/46/39 38/47/41
f 40/32/32 39/29/29 12/48/42
f 40/32/32 34/31/31 39/29/29
f 34/31/31 7/27/27 39/29/29
f 41/35/35 40/32/32 12/48/42
f 41/35/35 35/34/34 40/32/32
f 35/34/34 8/30/30 40/32/32
f 42/38/38 41/35/35 12/48/42
f 42/38/38 36/37/37 41/35/35
f 36/37/37 9/33/33 41/35/35
f 38/41/41 42/38/38 12/48/42
f 38/41/41 37/40/40 42/38/38
f 37/40/40 10/36/36 42/38/38
