# Blender v2.63 (sub 0) OBJ File: 'rock4.blend'
# www.blender.org
mtllib rock4.mtl
o Icosphere
v -0.134983 0.010735 0.029190
v 0.440102 0.297139 0.454770
v -0.376530 0.323959 0.909346
v -1.037706 0.295861 -0.052248
v -0.150372 0.198649 -0.818865
v 1.081087 0.292981 -0.643134
v 0.094133 1.155710 0.449009
v -0.849205 1.180135 0.495917
v -0.852763 1.200463 -0.627113
v 0.514961 1.074800 -1.034121
v 1.062032 1.115870 0.078088
v 0.371255 1.539696 -0.087668
v 0.357051 0.003868 0.308899
v 0.012925 0.284704 0.681643
v -0.303752 -0.012002 0.501718
v 0.436218 -0.003078 -0.268221
v 0.790827 0.240555 0.142708
v -0.842643 0.233045 0.530261
v -0.743639 -0.005219 -0.016719
v -0.755501 0.227483 -0.484626
v -0.131403 0.020257 -0.523866
v 0.497768 0.229060 -0.997370
v 1.274020 0.759054 -0.169316
v 0.828193 0.732131 0.370789
v 0.259105 0.751502 0.514568
v -0.354308 0.787159 0.884251
v -0.771612 0.782809 0.782487
v -1.171365 0.737954 0.033998
v -1.021470 0.705830 -0.556173
v -0.467299 0.733184 -0.923570
v -0.057665 0.503733 -0.968931
v 0.845461 0.599904 -1.018199
v 0.574679 1.233919 0.237065
v -0.443366 1.147658 0.748640
v -1.083512 1.229980 -0.101743
v 0.032558 1.309652 -0.821206
v 1.021959 1.270825 -0.744051
v 0.958296 1.440517 -0.131914
v 0.082659 1.427713 0.228377
v -0.495696 1.427446 0.252540
v -0.413911 1.431800 -0.419735
v 0.638924 1.551653 -0.657406
vt 0.490041 0.605590
vt 0.609932 0.536463
vt 0.448069 0.490303
vt 0.631143 0.684524
vt 0.610399 0.612939
vt 0.716816 0.670165
vt 0.341285 0.617724
vt 0.491741 0.740814
vt 0.630151 0.677459
vt 0.726686 0.790306
vt 0.431506 0.692300
vt 0.526675 0.682121
vt 0.437631 0.805525
vt 0.536306 0.684790
vt 0.393781 0.670300
vt 0.515878 0.793016
vt 0.486618 0.661323
vt 0.338699 0.669276
vt 0.409923 0.792496
vt 0.298840 0.685535
vt 0.156116 0.670776
vt 0.241684 0.760933
vt 0.587565 0.795892
vt 0.335588 0.805084
vt 0.660134 0.784281
vt 0.509741 0.735781
vt 0.680781 0.683204
vt 0.772948 0.757691
vt 0.565622 0.797872
vt 0.544846 0.405945
vt 0.662463 0.424351
vt 0.542447 0.472471
vt 0.314708 0.492535
vt 0.413563 0.430135
vt 0.401508 0.551516
vt 0.315513 0.767136
vt 0.258308 0.639020
vt 0.422509 0.715774
vt 0.647624 0.385534
vt 0.530020 0.443678
vt 0.678646 0.501946
vt 0.502677 0.396461
vt 0.703932 0.433123
vt 0.554509 0.475528
vt 0.525233 0.445836
vt 0.429666 0.390741
vt 0.448800 0.610045
vt 0.716244 0.576452
vt 0.788389 0.768168
vt 0.527170 0.611225
vt 0.316261 0.484127
vt 0.339083 0.732151
vt 0.487543 0.812974
vt 0.269434 0.626850
vt 0.646289 0.855654
vt 0.433519 0.792095
vt 0.505661 0.885488
vt 0.488554 0.671558
vt 0.547831 0.894972
vt 0.332929 0.805101
vt 0.403592 0.901825
vt 0.317400 0.670766
vt 0.274380 0.786635
vt 0.316369 0.907328
vt 0.641926 0.667426
vt 0.730711 0.757949
vt 0.650608 0.874561
vt 0.645142 0.667791
vt 0.665447 0.913378
vt 0.784435 0.883786
vt 0.416393 0.893805
vt 0.317209 0.902352
vt 0.549802 0.913121
vt 0.678218 0.905119
vt 0.533004 0.932705
vt 0.706916 0.922149
vt 0.774868 0.921735
vt 0.542960 0.556561
vt 0.757602 0.643351
vt 0.613997 0.633408
vt 0.663252 0.553703
vt 0.781451 0.394760
vt 0.756571 0.474295
vt 0.413409 0.404778
vt 0.747335 0.636036
vt 0.803734 0.489550
vt 0.890535 0.548532
vt 0.680296 0.772317
vt 0.532276 0.813273
vt 0.774082 0.792931
vt 0.282857 0.435692
vt 0.158597 0.388518
vt 0.189619 0.504930
vn 0.011125 -0.998965 -0.044094
vn 0.532586 -0.493010 0.687964
vn 0.029026 -0.998868 -0.037696
vn 0.027483 -0.999477 -0.017030
vn -0.033237 -0.999296 -0.017420
vn 0.580396 -0.378628 0.720958
vn 0.506289 0.022416 0.862073
vn -0.906361 -0.326367 0.268317
vn -0.453543 -0.422607 -0.784667
vn 0.489157 -0.498806 -0.715484
vn 0.243863 -0.030428 0.969332
vn -0.237063 0.063892 0.969391
vn -0.943683 -0.241108 -0.226559
vn -0.293788 -0.348533 -0.890063
vn 0.879202 0.107846 -0.464084
vn 0.230484 0.618840 0.750942
vn -0.242051 0.833977 0.495876
vn -0.373999 0.902175 -0.214952
vn -0.039254 0.625686 -0.779087
vn 0.950121 0.311635 0.012425
vn 0.301527 -0.708646 0.637889
vn 0.223097 -0.668398 0.709558
vn 0.418332 -0.496708 0.760447
vn 0.468790 -0.875827 0.114724
vn 0.500650 -0.862033 0.079053
vn -0.019290 -0.999770 0.009388
vn -0.715167 -0.678887 0.166278
vn -0.379746 -0.871315 0.310811
vn -0.315072 -0.759221 0.569485
vn -0.303639 -0.823826 -0.478658
vn -0.309920 -0.854406 -0.417062
vn -0.658058 -0.680712 -0.321854
vn 0.266451 -0.924701 -0.271904
vn 0.093696 -0.950942 -0.294841
vn -0.100410 -0.854228 -0.510111
vn 0.770706 0.016221 0.636984
vn 0.735969 -0.330176 0.591044
vn 0.778733 -0.575727 0.249225
vn 0.500714 0.333889 0.798626
vn 0.517306 0.033258 0.855154
vn 0.466327 0.069703 0.881862
vn -0.874757 0.159246 0.457648
vn -0.874672 -0.104175 0.473388
vn -0.572354 -0.279699 0.770831
vn -0.553606 0.069805 -0.829848
vn -0.495015 -0.391275 -0.775799
vn -0.764248 -0.488002 -0.421638
vn -0.047308 -0.066338 -0.996675
vn -0.053880 -0.005568 -0.998532
vn -0.230157 -0.372321 -0.899114
vn 0.347198 0.286531 0.892946
vn 0.239942 0.361344 0.901032
vn 0.371069 0.409570 0.833403
vn -0.440148 0.467131 0.766850
vn -0.229432 0.292535 0.928323
vn 0.439559 0.409348 0.799514
vn -0.882897 0.243557 -0.401464
vn -0.962731 0.102896 -0.250122
vn -0.891010 0.261478 0.371120
vn -0.310016 0.204881 -0.928393
vn -0.007461 0.181099 -0.983436
vn -0.242242 0.369357 -0.897159
vn 0.873197 0.484914 0.048833
vn 0.895450 -0.055061 -0.441745
vn 0.405120 0.252480 -0.878710
vn 0.181343 0.863073 0.471402
vn 0.263458 0.698708 0.665129
vn 0.376099 0.584990 0.718565
vn 0.013993 0.938397 0.345275
vn 0.020050 0.871754 0.489534
vn 0.386044 0.590889 0.708393
vn -0.132123 0.991186 -0.009655
vn -0.301711 0.952910 -0.030533
vn -0.437656 0.865470 0.243759
vn -0.121066 0.991989 -0.036059
vn -0.206681 0.848091 -0.487878
vn -0.212097 0.843984 -0.492652
vn 0.173182 0.979602 0.101922
vn 0.558055 0.812770 -0.167271
vn 0.234675 0.564295 -0.791517
usemtl Material_rock_striatons_4789.JPG
s off
f 1/1/1 13/2/1 15/3/1
f 2/4/2 13/5/2 17/6/2
f 1/1/3 15/3/3 19/7/3
f 1/1/4 19/7/4 21/8/4
f 1/1/5 21/8/5 16/9/5
f 2/4/6 17/6/6 24/10/6
f 3/11/7 14/12/7 26/13/7
f 4/14/8 18/15/8 28/16/8
f 5/17/9 20/18/9 30/19/9
f 6/20/10 22/21/10 32/22/10
f 2/4/11 24/10/11 25/23/11
f 3/11/12 26/13/12 27/24/12
f 4/14/13 28/16/13 29/25/13
f 5/17/14 30/19/14 31/26/14
f 6/27/15 32/28/15 23/29/15
f 7/30/16 33/31/16 39/32/16
f 8/33/17 34/34/17 40/35/17
f 9/36/18 35/37/18 41/38/18
f 10/39/19 36/40/19 42/41/19
f 11/42/20 37/43/20 38/44/20
f 15/3/21 14/45/21 3/46/21
f 15/47/22 13/5/22 14/12/22
f 13/5/23 2/4/23 14/12/23
f 17/48/24 16/9/24 6/49/24
f 17/48/25 13/2/25 16/9/25
f 13/2/26 1/1/26 16/9/26
f 19/50/27 18/15/27 4/14/27
f 19/7/28 15/3/28 18/51/28
f 15/3/29 3/46/29 18/51/29
f 21/8/30 20/52/30 5/53/30
f 21/8/31 19/7/31 20/52/31
f 19/7/32 4/54/32 20/52/32
f 16/9/33 22/55/33 6/49/33
f 16/9/34 21/8/34 22/55/34
f 21/8/35 5/53/35 22/55/35
f 24/56/36 23/29/36 11/57/36
f 24/56/37 17/58/37 23/29/37
f 17/58/38 6/27/38 23/29/38
f 26/13/39 25/23/39 7/59/39
f 26/13/40 14/12/40 25/23/40
f 14/12/41 2/4/41 25/23/41
f 28/16/42 27/60/42 8/61/42
f 28/16/43 18/15/43 27/60/43
f 18/62/44 3/11/44 27/24/44
f 30/19/45 29/63/45 9/64/45
f 30/19/46 20/18/46 29/63/46
f 20/65/47 4/14/47 29/25/47
f 32/66/48 31/26/48 10/67/48
f 32/66/49 22/68/49 31/26/49
f 22/68/50 5/17/50 31/26/50
f 25/23/51 33/69/51 7/59/51
f 25/23/52 24/10/52 33/69/52
f 24/10/53 11/70/53 33/69/53
f 27/24/54 34/71/54 8/72/54
f 27/24/55 26/13/55 34/71/55
f 26/13/56 7/59/56 34/71/56
f 29/25/57 35/73/57 9/74/57
f 29/25/58 28/16/58 35/73/58
f 28/16/59 8/61/59 35/73/59
f 31/26/60 36/75/60 10/67/60
f 31/26/61 30/19/61 36/75/61
f 30/19/62 9/64/62 36/75/62
f 23/29/63 37/76/63 11/57/63
f 23/29/64 32/28/64 37/76/64
f 32/66/65 10/67/65 37/77/65
f 39/78/66 38/79/66 12/80/66
f 39/78/67 33/81/67 38/79/67
f 33/31/68 11/82/68 38/83/68
f 40/35/69 39/78/69 12/80/69
f 40/35/70 34/34/70 39/78/70
f 34/84/71 7/30/71 39/32/71
f 41/38/72 40/35/72 12/80/72
f 41/38/73 35/37/73 40/35/73
f 35/85/74 8/86/74 40/87/74
f 42/88/75 41/38/75 12/80/75
f 42/88/76 36/89/76 41/38/76
f 36/89/77 9/36/77 41/38/77
f 38/79/78 42/88/78 12/80/78
f 38/79/79 37/90/79 42/88/79
f 37/91/80 10/92/80 42/93/80
